HIERARCHY
ROOT Hips
{
	OFFSET -14.64140 90.27770 -84.91600
	CHANNELS 6 Xposition Yposition Zposition Zrotation Xrotation Yrotation
	JOINT Spine
	{
		OFFSET 0.00000 13.20850 -1.60436
		CHANNELS 3 Zrotation Xrotation Yrotation
		JOINT Spine1
		{
			OFFSET 0.00000 8.61716 0.00000
			CHANNELS 3 Zrotation Xrotation Yrotation
			JOINT Spine2
			{
				OFFSET 0.00000 8.61717 0.00000
				CHANNELS 3 Zrotation Xrotation Yrotation
				JOINT Spine3
				{
					OFFSET 0.00000 8.61717 0.00000
					CHANNELS 3 Zrotation Xrotation Yrotation
					JOINT Neck
					{
						OFFSET 0.00000 11.07920 1.10792
						CHANNELS 3 Zrotation Xrotation Yrotation
						JOINT Neck1
						{
							OFFSET 0.00000 7.08032 0.00000
							CHANNELS 3 Zrotation Xrotation Yrotation
							JOINT Head
							{
								OFFSET 0.00000 7.08031 0.00000
								CHANNELS 3 Zrotation Xrotation Yrotation
								End site
								{
									OFFSET 0.00000 0.00000 0.00000
								}
							}
						}
					}
					JOINT RightShoulder
					{
						OFFSET -0.01000 7.91373 5.19711
						CHANNELS 3 Zrotation Xrotation Yrotation
						JOINT RightArm
						{
							OFFSET -18.41580 0.00000 0.00000
							CHANNELS 3 Zrotation Xrotation Yrotation
							JOINT RightForeArm
							{
								OFFSET -29.11090 0.00000 0.00000
								CHANNELS 3 Zrotation Xrotation Yrotation
								JOINT RightHand
								{
									OFFSET -24.65040 0.00000 0.00000
									CHANNELS 3 Zrotation Xrotation Yrotation
									JOINT RightHandThumb1
									{
										OFFSET -5.35114 -0.85590 3.97906
										CHANNELS 3 Zrotation Xrotation Yrotation
										JOINT RightHandThumb2
										{
											OFFSET -4.52789 0.00000 0.00000
											CHANNELS 3 Zrotation Xrotation Yrotation
											JOINT RightHandThumb3
											{
												OFFSET -2.46976 0.00000 0.00000
												CHANNELS 3 Zrotation Xrotation Yrotation
												End site
												{
													OFFSET 0.00000 0.00000 0.00000
												}
											}
										}
									}
									JOINT RightHandIndex1
									{
										OFFSET -14.26970 0.00000 2.88139
										CHANNELS 3 Zrotation Xrotation Yrotation
										JOINT RightHandIndex2
										{
											OFFSET -5.48836 0.00000 0.00000
											CHANNELS 3 Zrotation Xrotation Yrotation
											JOINT RightHandIndex3
											{
												OFFSET -3.01859 0.00000 0.00000
												CHANNELS 3 Zrotation Xrotation Yrotation
												End site
												{
													OFFSET 0.00000 0.00000 0.00000
												}
											}
										}
									}
									JOINT RightHandMiddle1
									{
										OFFSET -14.26970 0.00000 -0.09147
										CHANNELS 3 Zrotation Xrotation Yrotation
										JOINT RightHandMiddle2
										{
											OFFSET -6.17441 0.00000 0.00000
											CHANNELS 3 Zrotation Xrotation Yrotation
											JOINT RightHandMiddle3
											{
												OFFSET -3.56743 0.00000 0.00000
												CHANNELS 3 Zrotation Xrotation Yrotation
												End site
												{
													OFFSET 0.00000 0.00000 0.00000
												}
											}
										}
									}
									JOINT RightHandRing1
									{
										OFFSET -12.69180 0.00000 -3.06433
										CHANNELS 3 Zrotation Xrotation Yrotation
										JOINT RightHandRing2
										{
											OFFSET -5.62556 0.00000 0.00000
											CHANNELS 3 Zrotation Xrotation Yrotation
											JOINT RightHandRing3
											{
												OFFSET -3.56744 0.00000 0.00000
												CHANNELS 3 Zrotation Xrotation Yrotation
												End site
												{
													OFFSET 0.00000 0.00000 0.00000
												}
											}
										}
									}
									JOINT RightHandPinky1
									{
										OFFSET -11.11390 0.00000 -6.03719
										CHANNELS 3 Zrotation Xrotation Yrotation
										JOINT RightHandPinky2
										{
											OFFSET -4.52789 0.00000 0.00000
											CHANNELS 3 Zrotation Xrotation Yrotation
											JOINT RightHandPinky3
											{
												OFFSET -2.46976 0.00000 0.00000
												CHANNELS 3 Zrotation Xrotation Yrotation
												End site
												{
													OFFSET 0.00000 0.00000 0.00000
												}
											}
										}
									}
								}
							}
						}
					}
					JOINT LeftShoulder
					{
						OFFSET 0.01000 7.91373 5.19711
						CHANNELS 3 Zrotation Xrotation Yrotation
						JOINT LeftArm
						{
							OFFSET 18.41580 0.00000 0.00000
							CHANNELS 3 Zrotation Xrotation Yrotation
							JOINT LeftForeArm
							{
								OFFSET 29.11090 0.00000 0.00000
								CHANNELS 3 Zrotation Xrotation Yrotation
								JOINT LeftHand
								{
									OFFSET 24.65040 0.00000 0.00000
									CHANNELS 3 Zrotation Xrotation Yrotation
									JOINT LeftHandThumb1
									{
										OFFSET 5.35114 -0.85590 3.97906
										CHANNELS 3 Zrotation Xrotation Yrotation
										JOINT LeftHandThumb2
										{
											OFFSET 4.52789 0.00000 0.00000
											CHANNELS 3 Zrotation Xrotation Yrotation
											JOINT LeftHandThumb3
											{
												OFFSET 2.46977 0.00000 0.00000
												CHANNELS 3 Zrotation Xrotation Yrotation
												End site
												{
													OFFSET 0.00000 0.00000 0.00000
												}
											}
										}
									}
									JOINT LeftHandIndex1
									{
										OFFSET 14.26970 0.00000 2.88139
										CHANNELS 3 Zrotation Xrotation Yrotation
										JOINT LeftHandIndex2
										{
											OFFSET 5.48836 0.00000 0.00000
											CHANNELS 3 Zrotation Xrotation Yrotation
											JOINT LeftHandIndex3
											{
												OFFSET 3.01859 0.00000 0.00000
												CHANNELS 3 Zrotation Xrotation Yrotation
												End site
												{
													OFFSET 0.00000 0.00000 0.00000
												}
											}
										}
									}
									JOINT LeftHandMiddle1
									{
										OFFSET 14.26970 0.00000 -0.09147
										CHANNELS 3 Zrotation Xrotation Yrotation
										JOINT LeftHandMiddle2
										{
											OFFSET 6.17440 0.00000 0.00000
											CHANNELS 3 Zrotation Xrotation Yrotation
											JOINT LeftHandMiddle3
											{
												OFFSET 3.56744 0.00000 0.00000
												CHANNELS 3 Zrotation Xrotation Yrotation
												End site
												{
													OFFSET 0.00000 0.00000 0.00000
												}
											}
										}
									}
									JOINT LeftHandRing1
									{
										OFFSET 12.69180 0.00000 -3.06433
										CHANNELS 3 Zrotation Xrotation Yrotation
										JOINT LeftHandRing2
										{
											OFFSET 5.62556 0.00000 0.00000
											CHANNELS 3 Zrotation Xrotation Yrotation
											JOINT LeftHandRing3
											{
												OFFSET 3.56744 0.00000 0.00000
												CHANNELS 3 Zrotation Xrotation Yrotation
												End site
												{
													OFFSET 0.00000 0.00000 0.00000
												}
											}
										}
									}
									JOINT LeftHandPinky1
									{
										OFFSET 11.11390 0.00000 -6.03719
										CHANNELS 3 Zrotation Xrotation Yrotation
										JOINT LeftHandPinky2
										{
											OFFSET 4.52789 0.00000 0.00000
											CHANNELS 3 Zrotation Xrotation Yrotation
											JOINT LeftHandPinky3
											{
												OFFSET 2.46976 0.00000 0.00000
												CHANNELS 3 Zrotation Xrotation Yrotation
												End site
												{
													OFFSET 0.00000 0.00000 0.00000
												}
											}
										}
									}
								}
							}
						}
					}
					JOINT pCube4
					{
						OFFSET 0.00000 10.91090 1.10792
						CHANNELS 3 Zrotation Xrotation Yrotation
						End site
						{
							OFFSET 0.00000 0.00000 0.00000
						}
					}
				}
			}
		}
	}
	JOINT RightUpLeg
	{
		OFFSET -9.98441 0.00000 0.00000
		CHANNELS 3 Zrotation Xrotation Yrotation
		JOINT RightLeg
		{
			OFFSET 0.00000 -42.11790 0.00000
			CHANNELS 3 Zrotation Xrotation Yrotation
			JOINT RightFoot
			{
				OFFSET 0.00000 -45.00020 -0.00001
				CHANNELS 3 Zrotation Xrotation Yrotation
				JOINT RightForeFoot
				{
					OFFSET 0.00000 -3.74820 0.00000
					CHANNELS 3 Zrotation Xrotation Yrotation
					JOINT RightToeBase
					{
						OFFSET 0.00000 0.06325 14.43120
						CHANNELS 3 Zrotation Xrotation Yrotation
						End site
						{
							OFFSET 0.00000 0.00000 0.00000
						}
					}
				}
			}
		}
	}
	JOINT LeftUpLeg
	{
		OFFSET 9.98441 0.00000 0.00000
		CHANNELS 3 Zrotation Xrotation Yrotation
		JOINT LeftLeg
		{
			OFFSET 0.00000 -42.11800 0.00000
			CHANNELS 3 Zrotation Xrotation Yrotation
			JOINT LeftFoot
			{
				OFFSET 0.00000 -45.00070 0.00000
				CHANNELS 3 Zrotation Xrotation Yrotation
				JOINT LeftForeFoot
				{
					OFFSET 0.00000 -3.74824 0.00000
					CHANNELS 3 Zrotation Xrotation Yrotation
					JOINT LeftToeBase
					{
						OFFSET 0.00000 0.06325 14.43110
						CHANNELS 3 Zrotation Xrotation Yrotation
						End site
						{
							OFFSET 0.00000 0.00000 0.00000
						}
					}
				}
			}
		}
	}
}
MOTION
Frames: 4
Frame Time: 0.050000
0.04782140030942966 0.011950399458952857 -0.04635526678555993 -0.001531181884881987 -0.0074833662360762375 0.01035870870602923 -3.5459283755347095 7.37642089489637 -0.7481073259096377 -0.6285993100446562 2.9206356635510553 0.36865536390457027 -0.741402882636198 0.28324005941264424 -1.8527259560325964 -0.35914147673825303 0.40061964520829557 -1.0524085663914677 -0.5566598352857568 8.695899319524944 0.38387110077483655 -0.187379297518323 -0.6529762629214895 -1.4504819349187597 -0.3325137374465217 -14.306466095096376 -0.001271240405553247 4.044931805124389 -0.15686413341529412 -10.471087338349717 70.69891161325846 -7.319517666093676 31.00079673832111 39.32290126676242 15.327294242060338 103.92040152683632 20.984758767849275 -0.07854894150783773 -12.135436930415894 4.511287387862272 -0.10542971036300836 -1.5828008221089234 0.011792022890325826 -0.0008883044520039066 -56.27380722064145 0.022196128054900267 -0.04463930431943408 -56.269984888395626 -38.72102695405792 0.0013204554584450863 -0.004459655316383054 -0.0248134237298758 -0.009106325509949578 -0.002725322961592118 0.016110115652974256 -0.023674131905408194 -0.02357522675839261 -36.695770100627 -0.012113340748363045 -0.04556900164396891 0.012228117586803382 -0.006475851134222952 -0.008136035134266232 -0.045730108499168934 0.0486432351992095 -0.02566928403581968 -19.78839979216251 0.0009063270425361703 -0.002757078672521907 0.011040615644117461 -0.02637542182997897 -0.012233053482500231 -0.015577098767655938 -0.0315404707624074 -0.041181402422024393 24.02265777987146 -0.021149552778598344 0.016717533177085984 28.85713952038507 -0.03474767715783075 0.021683513635682473 28.87388930459392 -0.04017638793469959 0.034882901115515084 -0.908500020940524 0.37358923009711187 8.86473652037894 -59.68473794750124 16.608345755857613 -37.27038097295739 -25.119451358135677 12.787780032991689 -101.89164185733861 -17.272890498197263 1.157478348100345 -1.8012204427455636 -0.49439729982954056 0.08027208604326157 -8.110065883007847 -0.015116508465049569 -0.021712095224656513 44.54144792549502 -0.04271373729765296 0.04086683140421216 44.56353905761035 12.420989627256397 0.016686844470094827 0.0015088240197385597 -0.009887433713827568 -0.049236243162499305 -0.020608467632061964 -0.018181400410570994 -0.0027655168071646125 0.024548212583666632 11.097595331731247 0.029265279816451793 0.0015109669570286348 0.030176250769199692 -0.013461184655964211 -0.00888882164518529 -0.021761347400064884 0.012027523899919363 0.002955114850393367 4.797379835685541 -0.031189258478780374 0.03268883759959532 0.04761293651088619 -0.04216321629273315 0.02604019008528694 -0.03690769161568008 -0.037129608037179934 0.0266785259603501 -5.560315468289379 -0.03572688779113472 -0.03400310486485107 -6.737719341176145 0.028480358240069836 -0.01234546095309977 -6.761057767897725 0.049170901413856695 0.014973599757695527 -0.02854707436985318 -0.036673599876232116 0.0007672088255750599 8.030356647068524 3.5130526772512423 -19.18025423512156 0.03118831893130877 10.359122784143974 -0.029093521753343256 -5.583782344021694 -15.692440944306998 3.1430200400683943 -0.015137582188479043 0.006810118989795989 0.04825065929797856 0.034222387509234516 4.708482429354886 -0.021221052444930902 12.454867207407327 -8.215646572600285 6.899539158779238 0.013593193014264116 46.34180606894109 -0.012911061424129157 -4.285871441913322 -14.71553441664085 -3.830930090375536 0.041445731670007965 0.04631031802477243 0.017906422715933453 -0.02937361717239333 -10.715286390918687 0.008989015014189607 
0.004378362538496543 -0.009256121464893064 0.006366799367118323 0.0074719079266229995 0.043863067173987476 -0.04671810194458303 -3.558185414236236 7.4354145809168415 -0.7248054524189691 -0.6057293317246878 3.0190945472847237 0.3822006597888606 -0.751852322803148 0.33850804372875193 -1.965662958043151 -0.2021338227855471 0.4263556090264311 -1.0515829345804617 -0.5874300154907804 8.76709426743872 0.32140401411333686 -0.20745551536541373 -0.6717290442078403 -1.3403724259948029 -0.3341391505437083 -14.413020301951128 0.00013081300679328514 4.059036514178023 -0.14004108486469738 -10.42800061459868 70.8894118623284 -6.898294833452545 31.633353958821314 42.981166642101314 16.26682896112425 102.98332720785022 21.22131572453074 -0.034156264651472305 -12.637080950211924 4.554453241569457 -0.1117968703414508 -1.61658777715482 -0.018164251520974294 0.018981038923087334 -56.23459138909786 0.026863208844482393 0.0018268217853410062 -56.22628476034992 -38.73828884691393 0.01219850320903423 0.04786731783942989 -0.011885430806942527 0.013349730917383057 -0.006735760065661038 0.03764082261999462 -0.011569376188663941 -0.02859526658388757 -36.727770774276586 -0.04160546839101847 0.04115394195951758 0.03376284768762469 0.037667786298656726 0.00509262937610836 -0.025378605608683293 -0.03573048999848837 -0.0029340762777297 -19.736120688535554 0.024253889824043095 -0.035481439645668786 0.009670053170134986 0.03420380680692876 -0.04442420068653765 0.005329961108111371 -0.016104154190726635 0.03095994102427332 24.035390106908643 0.029129765545367694 -0.012710390739086929 28.857472216785876 -0.038436764631700766 0.034439378023876116 28.89198863659651 0.0036620895652184804 0.022503645173592348 -0.7852975663360272 0.4562982401161957 8.753190197689827 -58.69998100385363 17.390151065284787 -38.662713010829755 -26.036363490741273 14.103399571462635 -100.5696441956388 -18.549390659309232 1.4118011661637384 -2.0343438082239818 -0.5150093092816213 0.04150915353030238 -8.1472070320373 -0.0056886061279389265 0.014447818378506621 44.533667819631 -0.03925463225785704 -0.028079657700489417 44.58191628578829 12.465141438969487 0.021033502427416376 -0.03705540727373531 0.012459953617730906 -0.0006303884641113333 -0.030905382357665732 -0.01927525210978118 -0.00859479489237256 -0.02356043011760818 11.122658946210484 0.04290204732532185 -0.0180847344535366 0.0016969730190619869 -0.0012661436042913639 -0.0310389211330232 -0.009218622467062015 0.014720007832987799 -0.012493856323257045 4.7482793833229495 -0.048950075794229345 -0.0246136973200182 -0.03093431702502502 -0.022734162262629115 -0.03347969537195786 0.02128829435412943 -0.029181909745147526 -0.047800811898739894 -5.625294696424243 -0.03260795627788172 0.010171849975385021 -6.750975464225174 0.009916879564142736 -0.006434065950948613 -6.7215762968203805 0.04710452317144557 -0.04170552510933356 -0.024324473818110762 0.0370048146295944 -0.007347344099825233 8.014519469996168 3.4655354276268 -19.226824566658884 0.017008135669004068 10.412307726154642 0.03508333960986379 -5.610700391100672 -15.704092290133886 3.178621908230717 -0.00976319309485849 0.035780354856815084 0.026149717920316118 -0.03591983735285945 4.712129101743182 -0.02560018399875 12.424009781258244 -8.286981946246001 6.9059757939165 -0.02988138455873237 46.394704252864486 0.028191127120815344 -4.371691968292477 -14.795544322196678 -3.8086638920271496 0.01501475014303585 0.04106124558834992 0.02582410437582692 -0.004018189153453534 -10.703208873359966 -0.0023879737612150236 
0.02894110776242889 -0.0294515387009478 -0.027656856012489184 -0.038724199049580375 -0.029607249101675906 0.03432795037440605 -3.48680074131015 7.372075468428459 -0.7595652410756155 -0.6189218170405792 3.0030361982282976 0.3963236009602302 -0.7341938862091 0.32307143560535223 -2.0579551478706186 -0.10078140855550925 0.4628872103172942 -1.0982521008709867 -0.5667503856119152 8.788620551784968 0.2824556190310625 -0.23541053023883468 -0.7597024847943685 -1.4919686977988957 -0.27882226009444677 -14.490683786432514 -0.021429654860343806 4.223115843632523 -0.22154014378862907 -10.52157822167301 70.61122167970565 -5.79458241599891 31.376383457352883 45.13121247097534 16.419755383881345 102.25589204826761 21.265410921367597 -0.03313307855348317 -12.80963032712708 4.557079470645243 -0.12153674948096979 -1.5992191432838134 0.0112360698400338 0.02099698810182553 -56.1881390101165 -0.023540916928764914 0.0027451523231630352 -56.215656586207515 -38.776924117054946 0.04323502379034273 -0.01611112175658903 0.04487110960426837 0.03329800065605944 -0.005700467695989279 0.03786918461597068 -0.018724819052998578 -0.027211620887570176 -36.71296090685812 0.03556995892407482 0.010591077431543739 0.00017921050932165092 0.043144799825117375 0.003065181923181621 0.016840933681516002 0.00887163680431245 0.030594044620468303 -19.756401748607075 0.034301452074890486 0.01846892794827263 -0.029204008138114333 0.015768340352406273 -0.028976352866788582 -0.01856279501400844 0.02817549687348692 -0.013758993731308854 24.071430064153475 -0.04963639604972134 -0.04003403282650846 28.903526630985574 0.020454068298714292 -0.030656239435840955 28.85917330992826 -0.003673469793129694 -0.00811574542322339 -0.8751398910114084 0.4350694164405477 8.755283382921185 -57.593078995664996 18.789142924526608 -39.08378539141372 -25.296711519961633 14.45080346892959 -98.97095514156078 -19.51807682733694 1.6384231815485004 -2.0378778762362497 -0.491540777839984 0.07806183403526433 -8.135559384882091 -0.01891935157366026 -0.012188441991055095 44.5241667376946 -0.01885731948076539 -0.007616181572245965 44.59358848471485 12.466339278538353 -0.04038399887086924 0.021925236382650273 0.029134899103420125 -0.006051769808518193 -0.010559656621983616 0.04079172523057656 0.01072253661964822 -0.04819344621100885 11.08703068787678 0.04196277074947273 -0.03649181060188225 -0.010370197917119926 0.03149976752667215 -0.014298555021838891 0.04312127419169828 0.017381460737370437 -0.04896731269512922 4.733754333041372 -0.007644586612434568 -0.023047710009829216 0.045261681536490246 0.033400087399934685 0.0013853340508785483 -0.0028181564045314292 -0.03417233938534547 0.018330715849318627 -5.56598607816025 -0.048270102931050635 -0.03697673879217323 -6.731290989378295 -0.021013343499508307 -0.034281777744100315 -6.685683642451521 -0.017269138431541143 -0.031331478686390676 0.039608876663300374 -0.02736135845166068 0.029963965104647074 8.055468111257062 3.489877952445007 -19.218041905199115 0.011433929279431109 10.392849641588986 0.0640390170925458 -5.650758778752502 -15.687585246432285 3.163688606112698 0.00896632565601309 -0.038146194054416806 -0.008192435775855614 -0.014966118011305462 4.696726544392718 0.03301002307925978 12.456463420194448 -8.237537628533557 6.880189535331526 -0.0025594477359448128 46.362787826736024 -0.009028162712320332 -4.305365296391058 -14.728977794558437 -3.885165360325053 0.04209053837308398 -0.03257851339582713 -0.0007011956243609004 -0.0389205211937925 -10.793755930362334 -0.041649689003728126 
0.024631477135295732 -0.027125082337928333 0.021145408534330036 0.03587589868172994 -0.009670714996750776 0.0196098018417035 -3.4600529348933473 7.324148136028683 -0.6970019750776043 -0.6577367201015444 3.049141664220503 0.3562911100092797 -0.7600150647470456 0.42822564414173725 -2.136368777127318 0.03979539726895512 0.47556298749016607 -1.1012630577578262 -0.549644093753579 8.723478005771787 0.26716028489530463 -0.23981170763210707 -0.8354633360755244 -1.4070821124970379 -0.301310334980672 -14.608232581011093 -0.061813002263908595 4.594280925780318 -0.31888088087394434 -10.632292679873194 69.94101823362998 -4.071281880086073 29.999698923662738 47.21002334379761 16.382276253195432 101.83544968673037 21.494904707945263 0.06252352996644454 -13.242658026789664 4.540535662781695 -0.11063449859070656 -1.6218078627092547 -0.018866305922792346 0.006267076050318486 -56.25456395202729 0.021259151519889347 0.046887264013986685 -56.2296962797155 -38.785289443811095 0.017862728279900042 -0.03891181515074534 -0.03563845745096138 -0.021101327845047074 0.03606870001414009 0.03289698294138232 -0.016541796990930058 -0.009017544791767732 -36.66091808422266 -0.027244707273542314 0.005385898479340028 -0.005822714511286167 0.01833786998714196 0.03905821314867786 -0.037978337028315 -0.014796868028879966 0.00766733951844434 -19.710802058278393 -0.017649206838522957 0.03851684251751885 0.010079351181870954 -0.04795171427010282 0.037452424603329454 -0.030254232404657164 0.0008866138665498956 0.007935327931803252 24.039380180488713 0.00906395459818415 -0.028150541601907365 28.823133841857835 0.02562683431167656 -0.04371813314094613 28.843399248266053 -0.02988530888947494 -0.04953665312528525 -1.0743453317602571 0.38955873407292296 8.838954861748348 -56.296300948422726 20.728245399582377 -38.839191428557335 -24.22154647365548 14.43137746953422 -98.11096058402458 -20.391116107090813 1.831272329218587 -2.176987398902322 -0.47051510314687334 0.025101313345264407 -8.131876630874409 0.0011473711965372198 -0.03173786422110418 44.57697404093575 0.03682982170319132 0.004965548439381986 44.6081267131027 12.4568230219152 0.016948124804856537 -0.04089374918811115 -0.030881580230268775 -0.016062577946475778 0.04240844581868393 0.032523881775181715 0.035758684579583526 -0.017235880665309133 11.060634779603953 -0.041103200741526756 -0.012972757591658255 0.045761686261018404 -0.04569825635901521 -0.011710810797054416 -0.006177187834522398 -0.02061624876830198 -0.0013784840420687067 4.746368751199273 -0.007575506566116021 0.04058040606658781 -0.00572764058100069 -0.02295234988315069 -0.009741671605599326 -0.014047168756535448 0.014691392607250569 0.004372175299629056 -5.570585168685788 0.022576075916907412 -0.0070473534687316005 -6.687958055895794 0.004479095236401879 0.03838753976135373 -6.685106408836181 -0.008443046250998537 -0.04543545005014026 0.0243798722669481 -0.038037341027078696 0.027127634392661422 8.069722598692378 3.5079230132289028 -19.173897878283125 0.04848312917289744 10.425234704886524 -0.016736919396796706 -5.590176017297617 -15.66121529427481 3.210246138222747 0.0032487241743007983 -0.0472965981624519 0.010679415011592752 -0.007987720563807177 4.675218342072219 -0.020385512201387686 12.508070994613846 -8.20628578208219 6.893804871512391 0.01748335234331067 46.39047348557935 -0.017241716060300782 -4.348685962961416 -14.700337280633883 -3.805272101443908 -0.030618710987849126 0.002393234000374103 0.031752328812454225 0.02402967861130064 -10.733988994701127 -0.005228770065310073 
